<?xml version="1.0" encoding="UTF-8" standalone="no"?><svg xmlns="http://www.w3.org/2000/svg" xmlns:xlink="http://www.w3.org/1999/xlink" contentScriptType="application/ecmascript" contentStyleType="text/css" height="828px" preserveAspectRatio="none" style="width:1069px;height:828px;" version="1.1" viewBox="0 0 1069 828" width="1069px" zoomAndPan="magnify"><defs/><g><text fill="#000000" font-family="sans-serif" font-size="18" lengthAdjust="spacingAndGlyphs" textLength="499" x="288.5" y="19.2419">Class Diagram 04 - Reservation, Payment and Ticket Model</text><!--MD5=[3fd616f346a44cd59a91eb10b19e157c]
class User--><rect fill="#FEFECE" height="92.9457" id="User" style="stroke: #A80036; stroke-width: 1.5;" width="103" x="6" y="724.5158"/><ellipse cx="40.8" cy="740.5158" fill="#ADD1B2" rx="11" ry="11" style="stroke: #A80036; stroke-width: 1.0;"/><path d="M43.7688,746.1565 Q43.1906,746.4533 42.55,746.594 Q41.9094,746.7502 41.2063,746.7502 Q38.7063,746.7502 37.3781,745.1096 Q36.0656,743.4533 36.0656,740.3283 Q36.0656,737.2033 37.3781,735.5471 Q38.7063,733.8908 41.2063,733.8908 Q41.9094,733.8908 42.55,734.0471 Q43.2063,734.2033 43.7688,734.5002 L43.7688,737.219 Q43.1438,736.6408 42.55,736.3752 Q41.9563,736.094 41.3313,736.094 Q39.9875,736.094 39.3,737.1721 Q38.6125,738.2346 38.6125,740.3283 Q38.6125,742.4221 39.3,743.5002 Q39.9875,744.5627 41.3313,744.5627 Q41.9563,744.5627 42.55,744.2971 Q43.1438,744.0158 43.7688,743.4377 L43.7688,746.1565 Z "/><text fill="#000000" font-family="sans-serif" font-size="12" lengthAdjust="spacingAndGlyphs" textLength="27" x="59.2" y="745.1719">User</text><line style="stroke: #A80036; stroke-width: 1.5;" x1="7" x2="108" y1="756.5158" y2="756.5158"/><text fill="#000000" font-family="sans-serif" font-size="11" lengthAdjust="spacingAndGlyphs" textLength="50" x="12" y="772.2748">+id: UUID</text><text fill="#000000" font-family="sans-serif" font-size="11" lengthAdjust="spacingAndGlyphs" textLength="91" x="12" y="787.2566">+fullName: String</text><text fill="#000000" font-family="sans-serif" font-size="11" lengthAdjust="spacingAndGlyphs" textLength="72" x="12" y="802.2385">+email: String</text><line style="stroke: #A80036; stroke-width: 1.5;" x1="7" x2="108" y1="809.4615" y2="809.4615"/><!--MD5=[ac13618b1a974308c1f12eb6c57723dc]
class Event--><rect fill="#FEFECE" height="92.9457" id="Event" style="stroke: #A80036; stroke-width: 1.5;" width="122" x="783" y="707.5158"/><ellipse cx="824.55" cy="723.5158" fill="#ADD1B2" rx="11" ry="11" style="stroke: #A80036; stroke-width: 1.0;"/><path d="M827.5188,729.1565 Q826.9406,729.4533 826.3,729.594 Q825.6594,729.7502 824.9563,729.7502 Q822.4563,729.7502 821.1281,728.1096 Q819.8156,726.4533 819.8156,723.3283 Q819.8156,720.2033 821.1281,718.5471 Q822.4563,716.8908 824.9563,716.8908 Q825.6594,716.8908 826.3,717.0471 Q826.9563,717.2033 827.5188,717.5002 L827.5188,720.219 Q826.8938,719.6408 826.3,719.3752 Q825.7063,719.094 825.0813,719.094 Q823.7375,719.094 823.05,720.1721 Q822.3625,721.2346 822.3625,723.3283 Q822.3625,725.4221 823.05,726.5002 Q823.7375,727.5627 825.0813,727.5627 Q825.7063,727.5627 826.3,727.2971 Q826.8938,727.0158 827.5188,726.4377 L827.5188,729.1565 Z "/><text fill="#000000" font-family="sans-serif" font-size="12" lengthAdjust="spacingAndGlyphs" textLength="31" x="844.45" y="728.1719">Event</text><line style="stroke: #A80036; stroke-width: 1.5;" x1="784" x2="904" y1="739.5158" y2="739.5158"/><text fill="#000000" font-family="sans-serif" font-size="11" lengthAdjust="spacingAndGlyphs" textLength="50" x="789" y="755.2748">+id: UUID</text><text fill="#000000" font-family="sans-serif" font-size="11" lengthAdjust="spacingAndGlyphs" textLength="64" x="789" y="770.2566">+title: String</text><text fill="#000000" font-family="sans-serif" font-size="11" lengthAdjust="spacingAndGlyphs" textLength="110" x="789" y="785.2385">+startTime: DateTime</text><line style="stroke: #A80036; stroke-width: 1.5;" x1="784" x2="904" y1="792.4615" y2="792.4615"/><!--MD5=[3640288bb00e105a19a150bd568b9756]
class Seat--><rect fill="#FEFECE" height="107.9276" id="Seat" style="stroke: #A80036; stroke-width: 1.5;" width="120" x="784" y="422.0158"/><ellipse cx="827.35" cy="438.0158" fill="#ADD1B2" rx="11" ry="11" style="stroke: #A80036; stroke-width: 1.0;"/><path d="M830.3188,443.6565 Q829.7406,443.9533 829.1,444.094 Q828.4594,444.2502 827.7563,444.2502 Q825.2563,444.2502 823.9281,442.6096 Q822.6156,440.9533 822.6156,437.8283 Q822.6156,434.7033 823.9281,433.0471 Q825.2563,431.3908 827.7563,431.3908 Q828.4594,431.3908 829.1,431.5471 Q829.7563,431.7033 830.3188,432.0002 L830.3188,434.719 Q829.6938,434.1408 829.1,433.8752 Q828.5063,433.594 827.8813,433.594 Q826.5375,433.594 825.85,434.6721 Q825.1625,435.7346 825.1625,437.8283 Q825.1625,439.9221 825.85,441.0002 Q826.5375,442.0627 827.8813,442.0627 Q828.5063,442.0627 829.1,441.7971 Q829.6938,441.5158 830.3188,440.9377 L830.3188,443.6565 Z "/><text fill="#000000" font-family="sans-serif" font-size="12" lengthAdjust="spacingAndGlyphs" textLength="25" x="847.65" y="442.6719">Seat</text><line style="stroke: #A80036; stroke-width: 1.5;" x1="785" x2="903" y1="454.0158" y2="454.0158"/><text fill="#000000" font-family="sans-serif" font-size="11" lengthAdjust="spacingAndGlyphs" textLength="50" x="790" y="469.7748">+id: UUID</text><text fill="#000000" font-family="sans-serif" font-size="11" lengthAdjust="spacingAndGlyphs" textLength="108" x="790" y="484.7566">+rowNumber: String</text><text fill="#000000" font-family="sans-serif" font-size="11" lengthAdjust="spacingAndGlyphs" textLength="108" x="790" y="499.7385">+seatNumber: String</text><text fill="#000000" font-family="sans-serif" font-size="11" lengthAdjust="spacingAndGlyphs" textLength="97" x="790" y="514.7204">+status: SeatStatus</text><line style="stroke: #A80036; stroke-width: 1.5;" x1="785" x2="903" y1="521.9434" y2="521.9434"/><!--MD5=[9c46470aa33a0c75e6d1dfdefc2f9c22]
class Reservation--><rect fill="#FEFECE" height="167.8551" id="Reservation" style="stroke: #A80036; stroke-width: 1.5;" width="149" x="214" y="434.0158"/><ellipse cx="251.95" cy="450.0158" fill="#ADD1B2" rx="11" ry="11" style="stroke: #A80036; stroke-width: 1.0;"/><path d="M254.9188,455.6565 Q254.3406,455.9533 253.7,456.094 Q253.0594,456.2502 252.3563,456.2502 Q249.8563,456.2502 248.5281,454.6096 Q247.2156,452.9533 247.2156,449.8283 Q247.2156,446.7033 248.5281,445.0471 Q249.8563,443.3908 252.3563,443.3908 Q253.0594,443.3908 253.7,443.5471 Q254.3563,443.7033 254.9188,444.0002 L254.9188,446.719 Q254.2938,446.1408 253.7,445.8752 Q253.1063,445.594 252.4813,445.594 Q251.1375,445.594 250.45,446.6721 Q249.7625,447.7346 249.7625,449.8283 Q249.7625,451.9221 250.45,453.0002 Q251.1375,454.0627 252.4813,454.0627 Q253.1063,454.0627 253.7,453.7971 Q254.2938,453.5158 254.9188,452.9377 L254.9188,455.6565 Z "/><text fill="#000000" font-family="sans-serif" font-size="12" lengthAdjust="spacingAndGlyphs" textLength="66" x="271.05" y="454.6719">Reservation</text><line style="stroke: #A80036; stroke-width: 1.5;" x1="215" x2="362" y1="466.0158" y2="466.0158"/><text fill="#000000" font-family="sans-serif" font-size="11" lengthAdjust="spacingAndGlyphs" textLength="50" x="220" y="481.7748">+id: UUID</text><text fill="#000000" font-family="sans-serif" font-size="11" lengthAdjust="spacingAndGlyphs" textLength="137" x="220" y="496.7566">+status: ReservationStatus</text><text fill="#000000" font-family="sans-serif" font-size="11" lengthAdjust="spacingAndGlyphs" textLength="106" x="220" y="511.7385">+lockedAt: DateTime</text><text fill="#000000" font-family="sans-serif" font-size="11" lengthAdjust="spacingAndGlyphs" textLength="110" x="220" y="526.7204">+expiresAt: DateTime</text><text fill="#000000" font-family="sans-serif" font-size="11" lengthAdjust="spacingAndGlyphs" textLength="111" x="220" y="541.7023">+createdAt: DateTime</text><line style="stroke: #A80036; stroke-width: 1.5;" x1="215" x2="362" y1="548.9253" y2="548.9253"/><text fill="#000000" font-family="sans-serif" font-size="11" lengthAdjust="spacingAndGlyphs" textLength="53" x="220" y="564.6842">+confirm()</text><text fill="#000000" font-family="sans-serif" font-size="11" lengthAdjust="spacingAndGlyphs" textLength="44" x="220" y="579.6661">+cancel()</text><text fill="#000000" font-family="sans-serif" font-size="11" lengthAdjust="spacingAndGlyphs" textLength="45" x="220" y="594.648">+expire()</text><!--MD5=[cbb66340a95179b59f523e83b066d641]
class ReservationSeat--><rect fill="#FEFECE" height="92.9457" id="ReservationSeat" style="stroke: #A80036; stroke-width: 1.5;" width="125" x="508.5" y="409.5158"/><ellipse cx="524.4" cy="425.5158" fill="#ADD1B2" rx="11" ry="11" style="stroke: #A80036; stroke-width: 1.0;"/><path d="M527.3688,431.1565 Q526.7906,431.4533 526.15,431.594 Q525.5094,431.7502 524.8063,431.7502 Q522.3063,431.7502 520.9781,430.1096 Q519.6656,428.4533 519.6656,425.3283 Q519.6656,422.2033 520.9781,420.5471 Q522.3063,418.8908 524.8063,418.8908 Q525.5094,418.8908 526.15,419.0471 Q526.8063,419.2033 527.3688,419.5002 L527.3688,422.219 Q526.7438,421.6408 526.15,421.3752 Q525.5563,421.094 524.9313,421.094 Q523.5875,421.094 522.9,422.1721 Q522.2125,423.2346 522.2125,425.3283 Q522.2125,427.4221 522.9,428.5002 Q523.5875,429.5627 524.9313,429.5627 Q525.5563,429.5627 526.15,429.2971 Q526.7438,429.0158 527.3688,428.4377 L527.3688,431.1565 Z "/><text fill="#000000" font-family="sans-serif" font-size="12" lengthAdjust="spacingAndGlyphs" textLength="91" x="538.6" y="430.1719">ReservationSeat</text><line style="stroke: #A80036; stroke-width: 1.5;" x1="509.5" x2="632.5" y1="441.5158" y2="441.5158"/><text fill="#000000" font-family="sans-serif" font-size="11" lengthAdjust="spacingAndGlyphs" textLength="50" x="514.5" y="457.2748">+id: UUID</text><text fill="#000000" font-family="sans-serif" font-size="11" lengthAdjust="spacingAndGlyphs" textLength="113" x="514.5" y="472.2566">+lockedPrice: Decimal</text><text fill="#000000" font-family="sans-serif" font-size="11" lengthAdjust="spacingAndGlyphs" textLength="111" x="514.5" y="487.2385">+createdAt: DateTime</text><line style="stroke: #A80036; stroke-width: 1.5;" x1="509.5" x2="632.5" y1="494.4615" y2="494.4615"/><!--MD5=[764fca796ce7f635542948d8fc39db5e]
class Payment--><rect fill="#FEFECE" height="197.8189" id="Payment" style="stroke: #A80036; stroke-width: 1.5;" width="172" x="485" y="33.0158"/><ellipse cx="542.25" cy="49.0158" fill="#ADD1B2" rx="11" ry="11" style="stroke: #A80036; stroke-width: 1.0;"/><path d="M545.2188,54.6565 Q544.6406,54.9533 544,55.094 Q543.3594,55.2502 542.6563,55.2502 Q540.1563,55.2502 538.8281,53.6096 Q537.5156,51.9533 537.5156,48.8283 Q537.5156,45.7033 538.8281,44.0471 Q540.1563,42.3908 542.6563,42.3908 Q543.3594,42.3908 544,42.5471 Q544.6563,42.7033 545.2188,43.0002 L545.2188,45.719 Q544.5938,45.1408 544,44.8752 Q543.4063,44.594 542.7813,44.594 Q541.4375,44.594 540.75,45.6721 Q540.0625,46.7346 540.0625,48.8283 Q540.0625,50.9221 540.75,52.0002 Q541.4375,53.0627 542.7813,53.0627 Q543.4063,53.0627 544,52.7971 Q544.5938,52.5158 545.2188,51.9377 L545.2188,54.6565 Z "/><text fill="#000000" font-family="sans-serif" font-size="12" lengthAdjust="spacingAndGlyphs" textLength="49" x="562.75" y="53.6719">Payment</text><line style="stroke: #A80036; stroke-width: 1.5;" x1="486" x2="656" y1="65.0158" y2="65.0158"/><text fill="#000000" font-family="sans-serif" font-size="11" lengthAdjust="spacingAndGlyphs" textLength="50" x="491" y="80.7748">+id: UUID</text><text fill="#000000" font-family="sans-serif" font-size="11" lengthAdjust="spacingAndGlyphs" textLength="94" x="491" y="95.7566">+amount: Decimal</text><text fill="#000000" font-family="sans-serif" font-size="11" lengthAdjust="spacingAndGlyphs" textLength="90" x="491" y="110.7385">+currency: String</text><text fill="#000000" font-family="sans-serif" font-size="11" lengthAdjust="spacingAndGlyphs" textLength="121" x="491" y="125.7204">+status: PaymentStatus</text><text fill="#000000" font-family="sans-serif" font-size="11" lengthAdjust="spacingAndGlyphs" textLength="118" x="491" y="140.7023">+gatewayName: String</text><text fill="#000000" font-family="sans-serif" font-size="11" lengthAdjust="spacingAndGlyphs" textLength="160" x="491" y="155.6842">+gatewayTransactionId: String</text><text fill="#000000" font-family="sans-serif" font-size="11" lengthAdjust="spacingAndGlyphs" textLength="105" x="491" y="170.6661">+referenceId: String</text><text fill="#000000" font-family="sans-serif" font-size="11" lengthAdjust="spacingAndGlyphs" textLength="95" x="491" y="185.648">+paidAt: DateTime</text><line style="stroke: #A80036; stroke-width: 1.5;" x1="486" x2="656" y1="192.8709" y2="192.8709"/><text fill="#000000" font-family="sans-serif" font-size="11" lengthAdjust="spacingAndGlyphs" textLength="42" x="491" y="208.6299">+verify()</text><text fill="#000000" font-family="sans-serif" font-size="11" lengthAdjust="spacingAndGlyphs" textLength="48" x="491" y="223.6117">+refund()</text><!--MD5=[ac6bea31e13c94c7baa9ad18feb7405e]
class Ticket--><rect fill="#FEFECE" height="167.8551" id="Ticket" style="stroke: #A80036; stroke-width: 1.5;" width="121" x="510.5" y="537.0158"/><ellipse cx="550.7" cy="553.0158" fill="#ADD1B2" rx="11" ry="11" style="stroke: #A80036; stroke-width: 1.0;"/><path d="M553.6688,558.6565 Q553.0906,558.9533 552.45,559.094 Q551.8094,559.2502 551.1063,559.2502 Q548.6063,559.2502 547.2781,557.6096 Q545.9656,555.9533 545.9656,552.8283 Q545.9656,549.7033 547.2781,548.0471 Q548.6063,546.3908 551.1063,546.3908 Q551.8094,546.3908 552.45,546.5471 Q553.1063,546.7033 553.6688,547.0002 L553.6688,549.719 Q553.0438,549.1408 552.45,548.8752 Q551.8563,548.594 551.2313,548.594 Q549.8875,548.594 549.2,549.6721 Q548.5125,550.7346 548.5125,552.8283 Q548.5125,554.9221 549.2,556.0002 Q549.8875,557.0627 551.2313,557.0627 Q551.8563,557.0627 552.45,556.7971 Q553.0438,556.5158 553.6688,555.9377 L553.6688,558.6565 Z "/><text fill="#000000" font-family="sans-serif" font-size="12" lengthAdjust="spacingAndGlyphs" textLength="33" x="570.3" y="557.6719">Ticket</text><line style="stroke: #A80036; stroke-width: 1.5;" x1="511.5" x2="630.5" y1="569.0158" y2="569.0158"/><text fill="#000000" font-family="sans-serif" font-size="11" lengthAdjust="spacingAndGlyphs" textLength="50" x="516.5" y="584.7748">+id: UUID</text><text fill="#000000" font-family="sans-serif" font-size="11" lengthAdjust="spacingAndGlyphs" textLength="99" x="516.5" y="599.7566">+ticketCode: String</text><text fill="#000000" font-family="sans-serif" font-size="11" lengthAdjust="spacingAndGlyphs" textLength="109" x="516.5" y="614.7385">+qrCodeHash: String</text><text fill="#000000" font-family="sans-serif" font-size="11" lengthAdjust="spacingAndGlyphs" textLength="105" x="516.5" y="629.7204">+issuedAt: DateTime</text><text fill="#000000" font-family="sans-serif" font-size="11" lengthAdjust="spacingAndGlyphs" textLength="105" x="516.5" y="644.7023">+status: TicketStatus</text><line style="stroke: #A80036; stroke-width: 1.5;" x1="511.5" x2="630.5" y1="651.9253" y2="651.9253"/><text fill="#000000" font-family="sans-serif" font-size="11" lengthAdjust="spacingAndGlyphs" textLength="53" x="516.5" y="667.6842">+validate()</text><text fill="#000000" font-family="sans-serif" font-size="11" lengthAdjust="spacingAndGlyphs" textLength="77" x="516.5" y="682.6661">+markAsUsed()</text><text fill="#000000" font-family="sans-serif" font-size="11" lengthAdjust="spacingAndGlyphs" textLength="44" x="516.5" y="697.648">+cancel()</text><!--MD5=[c0ac3286bb48a3d76b8fec1ca8e08ed6]
class ReservationStatus--><rect fill="#FEFECE" height="107.9276" id="ReservationStatus" style="stroke: #A80036; stroke-width: 1.5;" width="133" x="504.5" y="266.0158"/><ellipse cx="519.5" cy="282.0158" fill="#EB937F" rx="11" ry="11" style="stroke: #A80036; stroke-width: 1.0;"/><path d="M523.6094,288.0158 L515.8906,288.0158 L515.8906,275.6252 L523.6094,275.6252 L523.6094,277.7815 L518.3438,277.7815 L518.3438,280.4533 L523.1094,280.4533 L523.1094,282.6096 L518.3438,282.6096 L518.3438,285.8596 L523.6094,285.8596 L523.6094,288.0158 Z "/><text fill="#000000" font-family="sans-serif" font-size="12" lengthAdjust="spacingAndGlyphs" textLength="101" x="533.5" y="286.6719">ReservationStatus</text><line style="stroke: #A80036; stroke-width: 1.5;" x1="505.5" x2="636.5" y1="298.0158" y2="298.0158"/><text fill="#000000" font-family="sans-serif" font-size="11" lengthAdjust="spacingAndGlyphs" textLength="49" x="510.5" y="313.7748">PENDING</text><text fill="#000000" font-family="sans-serif" font-size="11" lengthAdjust="spacingAndGlyphs" textLength="65" x="510.5" y="328.7566">CONFIRMED</text><text fill="#000000" font-family="sans-serif" font-size="11" lengthAdjust="spacingAndGlyphs" textLength="44" x="510.5" y="343.7385">EXPIRED</text><text fill="#000000" font-family="sans-serif" font-size="11" lengthAdjust="spacingAndGlyphs" textLength="61" x="510.5" y="358.7204">CANCELLED</text><line style="stroke: #A80036; stroke-width: 1.5;" x1="505.5" x2="636.5" y1="365.9434" y2="365.9434"/><!--MD5=[017244e77023a598da2859a11fd9adee]
class PaymentStatus--><rect fill="#FEFECE" height="122.9094" id="PaymentStatus" style="stroke: #A80036; stroke-width: 1.5;" width="116" x="786" y="70.5158"/><ellipse cx="801" cy="86.5158" fill="#EB937F" rx="11" ry="11" style="stroke: #A80036; stroke-width: 1.0;"/><path d="M805.1094,92.5158 L797.3906,92.5158 L797.3906,80.1252 L805.1094,80.1252 L805.1094,82.2815 L799.8438,82.2815 L799.8438,84.9533 L804.6094,84.9533 L804.6094,87.1096 L799.8438,87.1096 L799.8438,90.3596 L805.1094,90.3596 L805.1094,92.5158 Z "/><text fill="#000000" font-family="sans-serif" font-size="12" lengthAdjust="spacingAndGlyphs" textLength="84" x="815" y="91.1719">PaymentStatus</text><line style="stroke: #A80036; stroke-width: 1.5;" x1="787" x2="901" y1="102.5158" y2="102.5158"/><text fill="#000000" font-family="sans-serif" font-size="11" lengthAdjust="spacingAndGlyphs" textLength="53" x="792" y="118.2748">INITIATED</text><text fill="#000000" font-family="sans-serif" font-size="11" lengthAdjust="spacingAndGlyphs" textLength="49" x="792" y="133.2566">PENDING</text><text fill="#000000" font-family="sans-serif" font-size="11" lengthAdjust="spacingAndGlyphs" textLength="46" x="792" y="148.2385">SUCCESS</text><text fill="#000000" font-family="sans-serif" font-size="11" lengthAdjust="spacingAndGlyphs" textLength="37" x="792" y="163.2204">FAILED</text><text fill="#000000" font-family="sans-serif" font-size="11" lengthAdjust="spacingAndGlyphs" textLength="57" x="792" y="178.2023">REFUNDED</text><line style="stroke: #A80036; stroke-width: 1.5;" x1="787" x2="901" y1="185.4253" y2="185.4253"/><!--MD5=[6395256d0a50d27ca1f6d8b64b5d949b]
class TicketStatus--><rect fill="#FEFECE" height="92.9457" id="TicketStatus" style="stroke: #A80036; stroke-width: 1.5;" width="100" x="794" y="574.5158"/><ellipse cx="809" cy="590.5158" fill="#EB937F" rx="11" ry="11" style="stroke: #A80036; stroke-width: 1.0;"/><path d="M813.1094,596.5158 L805.3906,596.5158 L805.3906,584.1252 L813.1094,584.1252 L813.1094,586.2815 L807.8438,586.2815 L807.8438,588.9533 L812.6094,588.9533 L812.6094,591.1096 L807.8438,591.1096 L807.8438,594.3596 L813.1094,594.3596 L813.1094,596.5158 Z "/><text fill="#000000" font-family="sans-serif" font-size="12" lengthAdjust="spacingAndGlyphs" textLength="68" x="823" y="595.1719">TicketStatus</text><line style="stroke: #A80036; stroke-width: 1.5;" x1="795" x2="893" y1="606.5158" y2="606.5158"/><text fill="#000000" font-family="sans-serif" font-size="11" lengthAdjust="spacingAndGlyphs" textLength="32" x="800" y="622.2748">VALID</text><text fill="#000000" font-family="sans-serif" font-size="11" lengthAdjust="spacingAndGlyphs" textLength="28" x="800" y="637.2566">USED</text><text fill="#000000" font-family="sans-serif" font-size="11" lengthAdjust="spacingAndGlyphs" textLength="61" x="800" y="652.2385">CANCELLED</text><line style="stroke: #A80036; stroke-width: 1.5;" x1="795" x2="893" y1="659.4615" y2="659.4615"/><!--MD5=[5c374ebd0b8704ed7b41dde2c76c6fab]
class SeatStatus--><rect fill="#FEFECE" height="92.9457" id="SeatStatus" style="stroke: #A80036; stroke-width: 1.5;" width="92" x="966" y="429.5158"/><ellipse cx="981" cy="445.5158" fill="#EB937F" rx="11" ry="11" style="stroke: #A80036; stroke-width: 1.0;"/><path d="M985.1094,451.5158 L977.3906,451.5158 L977.3906,439.1252 L985.1094,439.1252 L985.1094,441.2815 L979.8438,441.2815 L979.8438,443.9533 L984.6094,443.9533 L984.6094,446.1096 L979.8438,446.1096 L979.8438,449.3596 L985.1094,449.3596 L985.1094,451.5158 Z "/><text fill="#000000" font-family="sans-serif" font-size="12" lengthAdjust="spacingAndGlyphs" textLength="60" x="995" y="450.1719">SeatStatus</text><line style="stroke: #A80036; stroke-width: 1.5;" x1="967" x2="1057" y1="461.5158" y2="461.5158"/><text fill="#000000" font-family="sans-serif" font-size="11" lengthAdjust="spacingAndGlyphs" textLength="57" x="972" y="477.2748">AVAILABLE</text><text fill="#000000" font-family="sans-serif" font-size="11" lengthAdjust="spacingAndGlyphs" textLength="43" x="972" y="492.2566">LOCKED</text><text fill="#000000" font-family="sans-serif" font-size="11" lengthAdjust="spacingAndGlyphs" textLength="46" x="972" y="507.2385">BOOKED</text><line style="stroke: #A80036; stroke-width: 1.5;" x1="967" x2="1057" y1="514.4615" y2="514.4615"/><!--MD5=[c24e85aca65080b7f8317b6a9db850e8]
link User to Reservation--><path d="M100.77,724.3158 C132.43,689.3358 176.55,640.5958 213.95,599.2758 " fill="none" id="User-Reservation" style="stroke: #A80036; stroke-width: 1.0;"/><text fill="#000000" font-family="sans-serif" font-size="13" lengthAdjust="spacingAndGlyphs" textLength="43" x="140" y="631.9129">creates</text><text fill="#000000" font-family="sans-serif" font-size="13" lengthAdjust="spacingAndGlyphs" textLength="7" x="99.8598" y="712.8186">1</text><text fill="#000000" font-family="sans-serif" font-size="13" lengthAdjust="spacingAndGlyphs" textLength="20" x="185.8913" y="621.7687">0..*</text><!--MD5=[0097c986fb0d78e7f5845a4997ff2b6a]
link Event to Reservation--><path d="M782.9,765.9658 C708.9,777.6358 581.2,787.7058 485,742.0158 C422.64,712.3958 372.07,652.5858 338,602.2158 " fill="none" id="Event-Reservation" style="stroke: #A80036; stroke-width: 1.0;"/><text fill="#000000" font-family="sans-serif" font-size="13" lengthAdjust="spacingAndGlyphs" textLength="48" x="547" y="737.9129">receives</text><text fill="#000000" font-family="sans-serif" font-size="13" lengthAdjust="spacingAndGlyphs" textLength="7" x="768.0269" y="782.4015">1</text><text fill="#000000" font-family="sans-serif" font-size="13" lengthAdjust="spacingAndGlyphs" textLength="20" x="321.2711" y="623.8248">0..*</text><!--MD5=[21dc1318985edc9d9ee4ed74eaea5d0d]
link Reservation to ReservationSeat--><path d="M363.2,501.7258 C408.32,491.7558 465.41,479.1358 508.17,469.6858 " fill="none" id="Reservation-ReservationSeat" style="stroke: #A80036; stroke-width: 1.0;"/><text fill="#000000" font-family="sans-serif" font-size="13" lengthAdjust="spacingAndGlyphs" textLength="49" x="399.5" y="476.9129">includes</text><text fill="#000000" font-family="sans-serif" font-size="13" lengthAdjust="spacingAndGlyphs" textLength="7" x="370.8978" y="514.8979">1</text><text fill="#000000" font-family="sans-serif" font-size="13" lengthAdjust="spacingAndGlyphs" textLength="20" x="480.6594" y="485.9083">1..*</text><!--MD5=[16816ac2a5a119ea128d92e41120b89a]
link ReservationSeat to Seat--><path d="M633.83,460.5758 C678.82,463.8958 739.38,468.3658 783.76,471.6458 " fill="none" id="ReservationSeat-Seat" style="stroke: #A80036; stroke-width: 1.0;"/><text fill="#000000" font-family="sans-serif" font-size="13" lengthAdjust="spacingAndGlyphs" textLength="30" x="705" y="459.9129">locks</text><text fill="#000000" font-family="sans-serif" font-size="13" lengthAdjust="spacingAndGlyphs" textLength="7" x="641.4994" y="476.0269">*</text><text fill="#000000" font-family="sans-serif" font-size="13" lengthAdjust="spacingAndGlyphs" textLength="7" x="768.9917" y="486.0936">1</text><!--MD5=[15fc33a7b103ac4172eb46ab511832a6]
link Reservation to Payment--><path d="M350.71,433.7858 C394.07,374.1158 452.4,293.8458 498,231.0958 " fill="none" id="Reservation-Payment" style="stroke: #A80036; stroke-width: 1.0;"/><text fill="#000000" font-family="sans-serif" font-size="13" lengthAdjust="spacingAndGlyphs" textLength="44" x="402" y="285.9129">paid by</text><text fill="#000000" font-family="sans-serif" font-size="13" lengthAdjust="spacingAndGlyphs" textLength="7" x="349.1223" y="422.1735">1</text><text fill="#000000" font-family="sans-serif" font-size="13" lengthAdjust="spacingAndGlyphs" textLength="20" x="472.1641" y="252.5883">0..1</text><!--MD5=[14a315b949c0e952060ea50bf7f948c5]
link Reservation to Ticket--><path d="M363.2,545.0758 C409.13,561.9458 467.47,583.3658 510.46,599.1558 " fill="none" id="Reservation-Ticket" style="stroke: #A80036; stroke-width: 1.0;"/><text fill="#000000" font-family="sans-serif" font-size="13" lengthAdjust="spacingAndGlyphs" textLength="60" x="394" y="552.9129">generates</text><text fill="#000000" font-family="sans-serif" font-size="13" lengthAdjust="spacingAndGlyphs" textLength="7" x="370.8978" y="562.5152">1</text><text fill="#000000" font-family="sans-serif" font-size="13" lengthAdjust="spacingAndGlyphs" textLength="20" x="482.3038" y="611.5573">0..*</text><!--MD5=[f177e8a7d8f4445411d192bfe0ac99a9]
link Ticket to User--><path d="M510.29,638.5258 C408.83,668.2758 204.55,728.1858 109.41,756.0858 " fill="none" id="Ticket-User" style="stroke: #A80036; stroke-width: 1.0;"/><text fill="#000000" font-family="sans-serif" font-size="13" lengthAdjust="spacingAndGlyphs" textLength="59" x="259" y="678.9129">owned by</text><text fill="#000000" font-family="sans-serif" font-size="13" lengthAdjust="spacingAndGlyphs" textLength="7" x="495.4644" y="655.6447">*</text><text fill="#000000" font-family="sans-serif" font-size="13" lengthAdjust="spacingAndGlyphs" textLength="7" x="116.8557" y="769.1699">1</text><!--MD5=[5052de7042955912b0ed1b721a4628ef]
link Ticket to Event--><path d="M631.81,650.3658 C676.7,672.3958 737.91,702.4358 782.88,724.5058 " fill="none" id="Ticket-Event" style="stroke: #A80036; stroke-width: 1.0;"/><text fill="#000000" font-family="sans-serif" font-size="13" lengthAdjust="spacingAndGlyphs" textLength="64" x="688" y="674.9129">belongs to</text><text fill="#000000" font-family="sans-serif" font-size="13" lengthAdjust="spacingAndGlyphs" textLength="7" x="639.6478" y="668.9277">*</text><text fill="#000000" font-family="sans-serif" font-size="13" lengthAdjust="spacingAndGlyphs" textLength="7" x="768.0044" y="735.8886">1</text><!--MD5=[1b02a19573a7431ec5c21488b73eecc1]
link Ticket to Seat--><path d="M631.81,589.0158 C677.01,564.8258 738.76,531.7858 783.81,507.6858 " fill="none" id="Ticket-Seat" style="stroke: #A80036; stroke-width: 1.0;"/><text fill="#000000" font-family="sans-serif" font-size="13" lengthAdjust="spacingAndGlyphs" textLength="64" x="688" y="522.9129">represents</text><text fill="#000000" font-family="sans-serif" font-size="13" lengthAdjust="spacingAndGlyphs" textLength="7" x="639.6478" y="600.1006">*</text><text fill="#000000" font-family="sans-serif" font-size="13" lengthAdjust="spacingAndGlyphs" textLength="7" x="769.0478" y="526.526">1</text><!--MD5=[b0ace61cf8815bae2c1ccc927abdbf6a]
link Reservation to ReservationStatus--><path d="M363.2,465.9958 C405.57,436.0858 458.49,398.7258 500.19,369.2958 " fill="none" id="Reservation-&gt;ReservationStatus" style="stroke: #A80036; stroke-width: 1.0;"/><polygon fill="#A80036" points="504.45,366.2858,494.7911,368.2108,500.366,369.1704,499.4063,374.7453,504.45,366.2858" style="stroke: #A80036; stroke-width: 1.0;"/><!--MD5=[a1d1519239f6b1d35ef837c25b603bba]
link Payment to PaymentStatus--><path d="M657,132.0158 C696.95,132.0158 743.73,132.0158 780.38,132.0158 " fill="none" id="Payment-&gt;PaymentStatus" style="stroke: #A80036; stroke-width: 1.0;"/><polygon fill="#A80036" points="785.71,132.0158,776.71,128.0158,780.71,132.0158,776.71,136.0158,785.71,132.0158" style="stroke: #A80036; stroke-width: 1.0;"/><!--MD5=[b58d93e04cfc8eaf29daaa2f5c8c28e8]
link Ticket to TicketStatus--><path d="M631.81,621.0158 C678.64,621.0158 743.22,621.0158 788.6,621.0158 " fill="none" id="Ticket-&gt;TicketStatus" style="stroke: #A80036; stroke-width: 1.0;"/><polygon fill="#A80036" points="793.76,621.0158,784.76,617.0158,788.76,621.0158,784.76,625.0158,793.76,621.0158" style="stroke: #A80036; stroke-width: 1.0;"/><!--MD5=[78a1ec07738acf78bb83c8710c564ed2]
link Seat to SeatStatus--><path d="M904.46,476.0158 C922.76,476.0158 942.71,476.0158 960.36,476.0158 " fill="none" id="Seat-&gt;SeatStatus" style="stroke: #A80036; stroke-width: 1.0;"/><polygon fill="#A80036" points="965.76,476.0158,956.76,472.0158,960.76,476.0158,956.76,480.0158,965.76,476.0158" style="stroke: #A80036; stroke-width: 1.0;"/><!--MD5=[f8d74cafd0a83c9cbbc49f6ea1d9a2c8]
@startuml
title Class Diagram 04 - Reservation, Payment and Ticket Model

left to right direction
skinparam shadowing false
skinparam classAttributeIconSize 0

class User {
  +id: UUID
  +fullName: String
  +email: String
}

class Event {
  +id: UUID
  +title: String
  +startTime: DateTime
}

class Seat {
  +id: UUID
  +rowNumber: String
  +seatNumber: String
  +status: SeatStatus
}

class Reservation {
  +id: UUID
  +status: ReservationStatus
  +lockedAt: DateTime
  +expiresAt: DateTime
  +createdAt: DateTime

  +confirm()
  +cancel()
  +expire()
}

class ReservationSeat {
  +id: UUID
  +lockedPrice: Decimal
  +createdAt: DateTime
}

class Payment {
  +id: UUID
  +amount: Decimal
  +currency: String
  +status: PaymentStatus
  +gatewayName: String
  +gatewayTransactionId: String
  +referenceId: String
  +paidAt: DateTime

  +verify()
  +refund()
}

class Ticket {
  +id: UUID
  +ticketCode: String
  +qrCodeHash: String
  +issuedAt: DateTime
  +status: TicketStatus

  +validate()
  +markAsUsed()
  +cancel()
}

enum ReservationStatus {
  PENDING
  CONFIRMED
  EXPIRED
  CANCELLED
}

enum PaymentStatus {
  INITIATED
  PENDING
  SUCCESS
  FAILED
  REFUNDED
}

enum TicketStatus {
  VALID
  USED
  CANCELLED
}

enum SeatStatus {
  AVAILABLE
  LOCKED
  BOOKED
}

User "1" - - "0..*" Reservation : creates
Event "1" - - "0..*" Reservation : receives
Reservation "1" - - "1..*" ReservationSeat : includes
ReservationSeat "*" - - "1" Seat : locks
Reservation "1" - - "0..1" Payment : paid by
Reservation "1" - - "0..*" Ticket : generates
Ticket "*" - - "1" User : owned by
Ticket "*" - - "1" Event : belongs to
Ticket "*" - - "1" Seat : represents

Reservation - -> ReservationStatus
Payment - -> PaymentStatus
Ticket - -> TicketStatus
Seat - -> SeatStatus

@enduml

PlantUML version 1.2020.02(Sun Mar 01 14:52:07 AFT 2020)
(GPL source distribution)
Java Runtime: OpenJDK Runtime Environment
JVM: OpenJDK 64-Bit Server VM
Java Version: 21.0.10+7-Ubuntu-124.04
Operating System: Linux
Default Encoding: UTF-8
Language: en
Country: US
--></g></svg>